<svg width="100" height="100" viewBox="0 0 100 100" fill="none" xmlns="http://www.w3.org/2000/svg">
<path d="M32.8929 16.9043C33.0626 16.8897 33.2277 16.8773 33.3981 16.8774C34.4307 16.8871 35.4181 17.3017 36.1481 18.0319C37.788 19.6997 37.2113 23.6037 37.2097 25.7452C39.7333 25.1266 41.7822 24.6311 44.1878 26.1101C46.1041 27.2881 46.7986 29.1501 46.385 31.3294C46.2283 32.1554 45.7933 32.8259 45.3467 33.5226C46.0399 33.8073 47.6911 34.8756 48.3246 35.3423C52.2086 38.1573 55.0553 42.1752 56.423 46.773C56.7677 47.9244 56.861 48.9312 57.1217 50.0713C57.1945 50.3911 57.6764 51.3345 57.8214 51.7227C58.1759 52.6738 58.4235 53.6055 58.5661 54.6226C59.1227 58.5972 58.4464 62.7861 56.0973 66.1094C55.4752 66.9898 54.4064 67.4287 53.4323 66.6611C53.2033 66.481 53.089 65.8814 52.9572 65.5942C51.6432 62.7266 50.0612 60.4492 46.5904 60.8613C47.6265 62.9194 49.2803 63.8911 51.3917 64.3994C52.3039 64.6191 52.2799 66.3398 51.8981 67.0601C51.109 68.5483 49.5482 69.9146 47.9605 70.5215C46.1028 71.2007 43.9993 70.9907 42.2433 70.127C37.7373 67.9106 37.4732 61.9331 39.0211 57.7627C39.2638 57.1089 39.697 56.7109 39.8898 56.1065C40.0116 55.7251 39.8762 54.8687 39.913 54.4492C39.7541 50.7739 42.0254 46.8423 45.5909 45.6277C48.3132 44.7005 50.6808 45.0338 53.2423 46.2974C50.7418 39.3411 43.7896 34.2916 36.4232 33.9339C35.6656 33.8965 34.9063 33.9097 34.1505 33.9734C33.658 34.014 33.0429 34.1097 32.5593 34.0942C31.6886 34.0663 31.2039 33.2054 31.3427 32.4196C31.4048 32.0471 31.6197 31.7174 31.9354 31.5103C32.3503 31.2331 32.9021 31.2251 33.3844 31.1243C35.3621 30.7107 37.2976 31.0775 39.2575 31.366C40.3075 31.5206 41.2783 31.8601 42.3066 32.0695C42.3737 32.0412 42.4401 32.011 42.5055 31.979C43.4319 31.5194 43.9982 30.3029 43.4444 29.3575C43.0333 28.6557 42.6 28.3974 41.8628 28.1678C41.651 28.105 41.1609 28.0129 40.9288 27.9948C39.8618 27.9311 38.257 28.2778 37.3719 28.8687C36.5941 29.3879 36.0744 30.3323 34.9368 30.2058C34.6268 30.1713 34.1973 29.9096 34.0421 29.6328C33.4441 28.5657 34.1355 27.121 34.234 25.9783C34.4358 24.2236 34.9588 21.6205 33.8896 20.0905C33.7898 19.9478 33.564 19.7292 33.3951 19.7387C32.9073 19.8186 32.2608 20.2842 31.9052 20.6296C29.8219 22.6534 29.0638 26.0142 29.2807 28.8269C29.3689 29.7669 29.708 30.556 29.692 31.5104C29.6776 32.3754 28.7623 32.9462 27.9691 32.8308C26.7066 32.6469 26.6748 31.0006 26.0268 30.1942C25.9084 30.0471 25.6872 29.8766 25.4736 29.8812C23.7624 30.0818 23.7872 32.6179 24.1612 33.8346C24.4069 34.6338 24.6845 35.0809 24.7265 35.8818C24.7413 36.1636 24.6209 36.4215 24.4432 36.6142C23.9341 37.1343 23.2015 37.4952 22.6037 37.9454C21.9027 38.4731 21.3077 38.9968 20.6813 39.606C15.1964 44.8803 12.9643 52.6929 14.8349 60.0689C15.3069 61.9219 15.8983 63.5396 16.9053 65.1641C17.3916 65.9487 18.2591 66.8545 18.2737 67.794C18.1933 68.394 17.3854 69.0459 16.9864 69.4395C14.105 72.2808 12.2877 76.2725 11.4759 80.2036C11.3278 80.9204 11.3744 82.1172 10.8663 82.6768C10.8345 82.7114 10.8006 82.7446 10.7649 82.7759C10.1299 83.3257 9.2102 82.9663 8.71025 82.3989C8.63296 82.1079 8.59565 81.6226 8.6122 81.3257C8.87934 76.5288 11.573 70.8003 14.9737 67.4653C9.20283 58.751 10.6084 46.1401 17.6798 38.5939C18.9641 37.2234 20.1385 36.3034 21.5203 35.0902C21.1189 34.1123 20.8369 32.8549 21.0315 31.7982C21.5669 28.8912 23.1496 26.7227 26.3433 27.2364C26.5075 23.3788 28.6389 17.7021 32.8929 16.9043ZM53.0451 60.4619C53.7492 61.2495 54.1833 61.9038 54.6349 62.8648C56.0319 60.1328 56.2975 56.3853 55.3976 53.4541C54.4767 50.4546 51.4596 47.5034 48.083 48.0159C46.3854 48.2421 45.1749 48.7869 44.0893 50.1812C43.0111 51.5659 42.5727 53.6177 42.728 55.353C42.8024 56.1846 43.5018 56.7124 44.1035 57.2056C44.3507 57.4087 44.9548 57.7715 45.2658 57.8482C45.785 57.9761 46.7238 57.9985 47.2784 57.9878C49.6235 57.9434 51.4035 58.7627 53.0451 60.4619ZM47.6915 67.5215C48.2798 67.1367 48.5722 66.9463 49.023 66.4067C46.6452 65.3325 45.3904 64.6519 44.0553 62.2173C43.8806 61.8989 43.3666 60.5781 43.2113 60.4556C42.8919 60.2041 41.9758 59.3955 41.6581 59.166C40.5055 62.0933 40.715 66.5054 44.097 67.8315C45.123 68.229 46.2656 68.1963 47.2675 67.7422C47.4102 67.6773 47.5542 67.5977 47.6915 67.5215Z" fill="currentColor"/>
<path d="M67.3073 38.1053C67.4323 38.0856 67.7766 38.0741 67.9157 38.0738C69.5798 38.0702 71.2482 38.0792 72.9128 38.0785L83.4665 38.0749L88.5578 38.0751C88.9352 38.0741 89.3376 38.083 89.7087 38.0723C91.1789 38.0299 92.5275 38.0771 93.6516 39.169C94.467 39.9611 94.7844 41.0338 94.7853 42.1613C94.7863 44.1616 94.7853 46.1661 94.7853 48.1684L94.7829 60.3516L94.7892 65.8394C94.7932 67.5879 95.1008 69.5576 93.7551 70.875C92.5041 72.0996 90.9001 71.9238 89.3044 71.9233L85.5041 71.9209L71.3166 71.9297C71.485 70.9927 71.5612 70.248 71.5646 69.2944C75.8234 69.4106 80.4484 69.3086 84.7365 69.3115L88.6203 69.3188C89.4128 69.3203 90.3869 69.3672 91.1618 69.2251C91.5661 69.1514 91.8732 68.7632 92.0837 68.4331C92.342 67.7627 92.2433 63.9019 92.2429 62.9546L92.2394 53.9351V46.2274C92.2404 44.9141 92.259 43.5898 92.2184 42.2784C92.1989 41.6486 91.779 41.084 91.1808 40.8925C90.8674 40.7922 90.55 40.7825 90.2233 40.7744C88.6061 40.7708 86.9885 40.7772 85.3713 40.7762L75.5827 40.7719L70.6301 40.7755C69.6877 40.7722 68.7477 40.7463 67.8068 40.8007C67.1193 40.8404 66.5134 41.3252 66.382 42.0107C66.1955 42.9865 66.2463 44.0499 66.2473 45.0478L66.2477 49.2695C66.235 53.1636 66.2619 57.0625 66.2492 60.9561C66.2463 61.9536 66.1662 63.0356 66.1481 64.0552C65.5026 64.1953 64.4084 64.4448 63.7907 64.0537C63.6457 63.9619 63.6252 63.6489 63.6174 63.4761C63.5588 62.1811 63.5881 60.8716 63.5915 59.5737L63.5949 52.3867L63.5939 45.3925C63.5944 43.4809 63.2868 41.0062 64.5842 39.4632C65.2819 38.6332 66.2355 38.2015 67.3073 38.1053Z" fill="currentColor"/>
<path d="M66.0983 65.6948C68.7189 65.5478 70.2443 67.6391 70.2311 70.1343C70.2208 72.0937 68.8009 73.2314 67.5036 74.4702C68.6242 77.8681 67.5499 80.5156 64.3668 82.2944C63.4943 82.7817 58.8639 84.7016 59.8165 81.3965C59.9347 80.9868 60.7208 80.7822 61.1588 80.6968C62.7394 80.3891 64.3234 79.3564 65.0441 77.8838C65.2628 77.5176 65.443 76.2876 64.86 76.1396C64.2116 75.9751 63.132 76.7749 62.546 77.0268C61.8331 77.3335 60.8698 77.9096 60.0939 77.5952C59.1569 77.1958 58.8537 76.0752 59.7555 75.4306C60.2526 75.0752 60.8644 74.8838 61.424 74.6391C62.1261 74.3237 62.8253 74.0024 63.5216 73.6748C65.0778 72.9453 66.7023 72.2407 67.442 70.5781C67.7604 69.7295 67.5636 68.5962 66.5934 68.3403C64.8815 67.8725 63.4235 69.0263 61.9718 69.7041C61.1325 70.0957 60.3419 70.4057 59.5133 70.8462L42.2535 79.584C41.4548 79.9858 40.6588 80.3935 39.8656 80.8061C38.9761 81.272 35.8996 83.3208 35.519 81.0522C35.4168 80.4438 35.8309 79.8628 36.3653 79.5566C38.24 78.4829 40.1778 77.5259 42.1113 76.5547C44.6254 75.2656 47.146 73.9887 49.6729 72.7246L57.2204 68.9282C59.0929 67.9892 60.9484 67.0478 62.8888 66.2456C63.945 65.8086 64.9752 65.7554 66.0983 65.6948Z" fill="currentColor"/>
<path d="M73.6984 46.0547C76.0665 45.8804 75.09 48.0996 75.4767 49.5689C75.733 49.8619 77.5675 49.8062 77.8678 50.542C77.9782 50.8125 78.0641 51.3892 78.068 51.669C78.0949 53.5572 78.0768 55.4463 78.0778 57.335L78.0788 60.2842C78.0783 60.899 78.1539 62.0762 77.8981 62.6172C77.4703 63.522 76.3937 63.3882 75.6212 63.5606C75.0421 63.6895 75.5495 65.8677 75.2565 66.294C75.0153 66.7359 74.9308 66.7793 74.4357 66.9859L74.3742 66.9937C72.2345 67.2466 72.8331 64.9952 72.7018 63.607C71.2872 63.2935 70.0607 63.6831 70.0441 61.6519C70.026 58.3482 70.0167 55.0093 70.0436 51.7076C70.0582 49.9605 71.0534 49.9805 72.4298 49.7178C72.7794 49.6509 72.7243 48.7364 72.735 48.4637C72.7745 47.4559 72.4992 46.456 73.6984 46.0547ZM72.7936 60.7911L75.1652 60.7857L75.2926 60.7686C75.4132 60.5987 75.3414 53.316 75.3244 52.4966C74.7799 52.4883 73.1867 52.521 72.7731 52.46L72.7936 60.7911Z" fill="currentColor"/>
<path d="M83.8263 43.6143C86.0939 43.3938 85.2931 45.5275 85.5788 46.9456L85.5939 47.0191C86.6247 47.185 87.8688 47.1251 88.0104 48.4913C88.0837 49.1929 88.069 49.8315 88.0695 50.5366L88.0729 53.7485L88.0846 57.3286C88.0871 58.3252 88.3405 60.2451 87.1965 60.6196C86.7018 60.7817 86.047 60.8276 85.5251 60.8887C85.3586 62.1304 85.9523 63.6411 84.5851 64.2471C82.2668 64.623 83.0329 62.2817 82.8044 60.9092C82.1188 60.771 80.5329 60.8296 80.3254 59.9209C80.1237 59.0381 80.1735 57.9121 80.174 56.9922L80.1828 53.5317C80.1838 52.0014 80.1613 50.4463 80.1906 48.9155C80.195 48.6787 80.28 48.0672 80.4059 47.8838C80.9499 47.0908 81.9064 47.1641 82.7189 46.9607L82.7824 46.9444C82.9308 45.7139 82.4499 44.0885 83.8263 43.6143ZM82.9333 58.0654C83.7438 58.0483 84.5549 58.0439 85.3654 58.0522C85.3268 57.478 85.3342 56.8296 85.3425 56.248C85.3722 54.122 85.2863 51.9619 85.3537 49.8393C84.6945 49.8374 83.5763 49.8686 82.9372 49.8188C82.8727 52.4785 82.9294 55.3877 82.9333 58.0654Z" fill="currentColor"/>
<path d="M32.8427 46.0669C37.6115 46.2914 37.8321 55.6621 32.8917 56.123C28.6947 56.147 28.2358 49.8228 30.3658 47.3241C31.0573 46.513 31.7895 46.1545 32.8427 46.0669ZM33.2466 50.8906C33.7778 50.6475 33.9201 50.3877 34.1178 49.8457C33.8662 49.2661 33.4484 48.657 32.7497 48.6725C31.4207 49.4292 31.9747 51.2139 33.2466 50.8906Z" fill="currentColor"/>
<path d="M25.0156 72.1782C25.8987 72.1001 26.3597 72.4468 26.6517 73.2666C27.4458 75.5068 27.5204 78.0527 27.312 80.4038C27.2184 81.4595 27.3809 82.459 26.1859 82.8418C25.61 82.9077 24.6645 82.8276 24.5139 82.1269C24.3575 81.3989 24.5958 80.6011 24.6306 79.8618C24.6945 78.5063 24.6918 77.1396 24.5218 75.793C24.3677 74.5728 23.124 72.5879 25.0156 72.1782Z" fill="currentColor"/>
</svg>
